# xmcd CD database generated by RipIT
#
# Track frame offsets:
# 150
# 2245
# 4857
# 12665
# 16642
# 21140
# 22385
# 27125
# 33052
# 37717
# 41332
# 48020
# 52742
# 55740
# 59872
# 61505
# 63397
# 68350
# 69765
# 76245
# 80962
# 85760
# 90102
# 92115
# 94615
# 98902
# 103342
# 105700
# 111410
# 119932
# 125695
# 128842
# 133775
# 138235
# 141927
# 147372
# 153415
# 157232
# 158705
# 163875
# 170275
# 174637
# 179042
# 186390
# 187807
# 191835
# 197860
# 203182
# 208192
# 213180
#
# Disc length: 2870 seconds
#
# Revision: 3
# Processed by: cddbd v1.5.1PL0 Copyright (c) Steve Scherf et al.
# Submitted via: RipIT 3.4 www.suwald.com/ripit/ripit.html at Wed Jul 13 12:58:39 CEST 2005
#
DISCID=bc0b3432
DTITLE=Veus d'ocells 50 especies - Veus d'ocells
DYEAR=1900
DGENRE=Sound Clip
TTITLE0=Bienenfresser
TTITLE1=Steinadler
TTITLE2=Alosa vulgar
TTITLE3=Stockente
TTITLE4=Bitxac comú
TTITLE5=Eisvogel
TTITLE6=Stieglitz
TTITLE7=Rotkopfwürger
TTITLE8=Cargolet
TTITLE9=Cigonya blanca
TTITLE10=Cogullada vulgar
TTITLE11=Colom
TTITLE12=Corb
TTITLE13=Cruixidell
TTITLE14=Cucut
TTITLE15=Cuereta blanca
TTITLE16=Enganyapastors
TTITLE17=Esparver vulgar
TTITLE18=Star
TTITLE19=Falciot negre
TTITLE20=Flamenc
TTITLE21=Gafarró
TTITLE22=Gaig
TTITLE23=Garsa
TTITLE24=Möwe
TTITLE25=Gralla
TTITLE26=Wachtel
TTITLE27=Zeisig
TTITLE28=Meise
TTITLE29=Amsel
TTITLE30=Waldohreule
TTITLE31=Òliba
TTITLE32=Schwalbe
TTITLE33=Pirol
TTITLE34=Spatz
TTITLE35=Passerell comú
TTITLE36=Perdiu roja
TTITLE37=Rünspecht
TTITLE38=Buchfink
TTITLE39=Rotkehlchen
TTITLE40=Wiedehofp
TTITLE41=Gartenbaumläufer
TTITLE42=Nachitgall
TTITLE43=Rothalsnachtschwalbe
TTITLE44=Zippammer
TTITLE45=Singdrossel
TTITLE46=Türkentaube
TTITLE47=Tudó
TTITLE48=Grünling
TTITLE49=Zwergohreule
EXTD=
EXTT0=
EXTT1=
EXTT2=
EXTT3=
EXTT4=
EXTT5=
EXTT6=
EXTT7=
EXTT8=
EXTT9=
EXTT10=
EXTT11=
EXTT12=
EXTT13=
EXTT14=
EXTT15=
EXTT16=
EXTT17=
EXTT18=
EXTT19=
EXTT20=
EXTT21=
EXTT22=
EXTT23=
EXTT24=
EXTT25=
EXTT26=
EXTT27=
EXTT28=
EXTT29=
EXTT30=
EXTT31=
EXTT32=
EXTT33=
EXTT34=
EXTT35=
EXTT36=
EXTT37=
EXTT38=
EXTT39=
EXTT40=
EXTT41=
EXTT42=
EXTT43=
EXTT44=
EXTT45=
EXTT46=
EXTT47=
EXTT48=
EXTT49=
PLAYORDER=
